<svg xmlns="http://www.w3.org/2000/svg" xmlns:xlink="http://www.w3.org/1999/xlink" xmlns:inkscape="http://www.inkscape.org/namespaces/inkscape" version="1.1" width="612" height="792" viewBox="0 0 612 792">
<text xml:space="preserve" transform="matrix(.24 0 -0 .24 0 190.08002)" font-size="75" font-family="Cambria" font-weight="bold"><tspan y="-691" x="1275"> </tspan></text>
<text xml:space="preserve" transform="matrix(.24 0 -0 .24 0 190.08002)" font-size="75" font-family="Cambria" font-weight="bold"><tspan y="-548" x="109.1675 172.6325 212.7725 257.56254 302.35255 325.94004 371.20256 410.20256 426.71757 476.33757 516.1475 556.28756">Mapping Real</tspan></text>
<text xml:space="preserve" transform="matrix(.24 0 -0 .24 0 190.08002)" font-size="75" font-family="Cambria" font-weight="bold"><tspan y="-548" x="579.3823">-</tspan></text>
<text xml:space="preserve" transform="matrix(.24 0 -0 .24 0 190.08002)" font-size="75" font-family="Cambria" font-weight="bold"><tspan y="-548" x="604.6509 676.7559 719.4534 754.0585 777.16598 821.956 838.471 884.506 919.111 961.80856 1007.07107 1051.8611 1097.1237 1132.2763 1155.8638 1196.0038 1223.3938 1246.9813 1289.6788 1334.9414 1351.4564 1397.4915 1442.244 1482.054 1527.3165 1570.014 1636.7715 1676.5814 1721.844 1761.984 1778.499 1805.889 1848.5866 1865.1016 1903.5916 1943.4015 1977.8265 2005.2166 2045.0265 2111.784 2128.2989 2171.2889 2213.9864 2259.2489 2294.4014 2334.2115 2379.0013 2406.391">World Pronunciation Phenomena to System Concepts</tspan></text>
<text xml:space="preserve" transform="matrix(.24 0 -0 .24 0 190.08002)" font-size="75" font-family="Cambria" font-weight="bold"><tspan y="-548" x="2440.833"> </tspan></text>
<text xml:space="preserve" transform="matrix(.24 0 -0 .24 0 190.08002)" font-size="50" font-family="TimesNewRomanPSMT"><tspan y="-429" x="75 111.11001 130.57 144.46 169.46 194.46 206.96 220.85002 245.85002 268.04 280.54 316.65003 341.65003 380.54 402.73 416.62 441.62 454.12 484.65998 509.65998 534.66 548.55 573.55 595.74 617.93 634.58 648.47006 673.47006 698.47006 710.97006 733.16006 758.16006 783.16006 795.66006 823.47006 848.47006 870.66006 895.66006 920.66006 959.55007 981.74008 1006.74008 1028.93 1041.43 1074.78 1099.78 1124.78 1146.97 1169.1599 1194.1599 1208.0499 1227.5099 1240.0099 1253.8999 1276.0899 1298.2798 1312.1698 1337.1698 1353.8198 1376.0098 1395.4697 1407.9697 1420.4697 1434.3598 1459.3598 1481.5497 1494.0497 1507.9397 1530.1296 1555.1296 1569.0197 1591.2096">Using the Domain Engineering and Phenomena Concepts lectures, the table </tspan></text>
<text xml:space="preserve" transform="matrix(.24 0 -0 .24 0 190.08002)" font-size="50" font-family="TimesNewRomanPSMT"><tspan y="-429" x="1603.76 1642.65 1667.65 1692.65 1714.84 1728.73">models</tspan></text>
<text xml:space="preserve" transform="matrix(.24 0 -0 .24 0 190.08002)" font-size="50" font-family="TimesNewRomanPSMT"><tspan y="-429" x="1748.193"> </tspan></text>
<text xml:space="preserve" transform="matrix(.24 0 -0 .24 0 190.08002)" font-size="50" font-family="TimesNewRomanPSMT"><tspan y="-429" x="1760.693 1785.693 1810.693 1846.803 1859.303 1875.953 1898.143 1920.3329">how real</tspan></text>
<text xml:space="preserve" transform="matrix(.24 0 -0 .24 0 190.08002)" font-size="50" font-family="TimesNewRomanPSMT"><tspan y="-429" x="1934.229">-</tspan></text>
<text xml:space="preserve" transform="matrix(.24 0 -0 .24 0 190.08002)" font-size="50" font-family="TimesNewRomanPSMT"><tspan y="-429" x="1950.879 1986.989 2011.989 2028.639 2042.529 2067.529 2080.029 2105.029 2121.679 2146.679 2171.679 2196.679 2221.679 2243.869 2257.7589 2279.9488 2293.8387 2307.7286 2332.7286">world pronunciation</tspan></text>
<text xml:space="preserve" transform="matrix(.24 0 -0 .24 0 190.08002)" font-size="50" font-family="TimesNewRomanPSMT"><tspan y="-429" x="2357.739"> </tspan></text>
<text xml:space="preserve" transform="matrix(.24 0 -0 .24 0 190.08002)" font-size="50" font-family="TimesNewRomanPSMT"><tspan y="-322" x="75 100 125 147.19 172.19 197.19 236.08 258.27 283.27 305.46 317.96 334.61 370.72 395.72 417.91 431.8 444.3 469.3 488.76 510.95 527.60006 547.06008 559.56008 584.56008 609.56008 622.06008 644.25009 669.25009 694.25009 706.75009 728.94009 753.94009 778.94009 801.13009 817.7801 831.6701 853.8601 878.8601 901.0501 923.2401 939.89016 952.39016 974.58016 991.23019 1013.42019 1025.9202 1048.1101 1070.3 1095.3 1109.1901 1134.1901 1150.8401 1173.03 1198.03 1210.53 1232.72 1252.1799 1264.6799 1286.8699 1311.8699 1336.8699 1359.0598 1381.2498 1406.2498 1420.1398 1439.5997 1452.0997 1488.2097 1502.0997 1515.9898 1540.9898 1554.8798 1579.8798 1592.3798 1617.3798 1642.3798 1659.0298 1671.5298 1690.9898 1715.9898 1735.4497 1749.3397 1771.5297 1810.4197 1824.3097 1846.4996 1871.4996 1896.4996 1918.6896 1931.1896 1947.8396 1970.0296 1995.0296 2008.9196 2022.8096 2036.6996 2050.5897 2072.7796 2092.2396 2104.7396 2117.2396 2133.8895 2158.8895 2183.8895 2206.0794 2219.9693 2233.8592 2258.8592 2283.8592 2303.319 2315.819 2328.319 2350.509 2375.509 2397.699 2422.699 2436.5889 2456.0489">phenomena (what users do and experience) are captured as concepts within our system/code (entities, functions, events,</tspan></text>
<text xml:space="preserve" transform="matrix(.24 0 -0 .24 0 190.08002)" font-size="50" font-family="TimesNewRomanPSMT"><tspan y="-322" x="2468.628"> </tspan></text>
<text xml:space="preserve" transform="matrix(.24 0 -0 .24 0 190.08002)" font-size="50" font-family="TimesNewRomanPSMT"><tspan y="-214" x="75 97.19 122.19 147.19 159.69 184.69 206.88 231.88 254.07 279.07 292.96 317.96 334.61 354.07 370.72 383.22 395.72 426.25999 451.25999 465.14997 484.61 497.11 519.3 533.19 547.08 572.08 597.08 635.97006 658.16006 683.16006 697.05007 709.55007 731.74008 756.74008 776.2001 801.2001 817.8501 840.0401 859.5001 872.0001 885.89016 910.89016 933.08016 946.97018 959.47018 973.36019 998.36019 1020.5502 1033.0502 1049.7002 1071.8901 1094.0801 1119.0801 1144.0801 1166.27 1188.46 1213.46 1225.96 1250.96 1264.85 1289.85 1312.0399 1337.0399 1349.5399 1374.5399 1399.5399 1412.0399 1425.9299 1450.9299 1473.1199 1485.6199 1513.4299 1530.08 1555.08 1580.08 1605.08 1630.08 1652.2699 1666.1599 1688.3499 1702.2399 1716.1299 1741.1299 1766.1299 1778.6299 1811.9799 1836.9799 1859.1698 1881.3598 1906.3598 1918.8598 1941.0497 1963.2396 1985.4296 2010.4296 2027.0796 2049.2696 2063.1595 2085.3494 2099.2393 2124.2393 2136.7393 2153.3892 2175.579 2192.229 2206.119 2228.3089 2250.4989 2264.3887 2283.8487">and behaviors). This alignment ensures that the feedback given by the Pronunciation Coach accurately reflects </tspan></text>
<text xml:space="preserve" transform="matrix(.24 0 -0 .24 0 190.08002)" font-size="50" font-family="TimesNewRomanPSMT"><tspan y="-148" x="75 88.89 102.78 127.78 152.78 177.78 191.67 211.12999 225.02 238.91002">linguistic</tspan></text>
<text xml:space="preserve" transform="matrix(.24 0 -0 .24 0 190.08002)" font-size="50" font-family="TimesNewRomanPSMT"><tspan y="-148" x="261.1084"> </tspan></text>
<text xml:space="preserve" transform="matrix(.24 0 -0 .24 0 190.08002)" font-size="50" font-family="TimesNewRomanPSMT"><tspan y="-40" x="75 91.65 113.840007 136.03002 149.92003 163.81005 177.70006 202.70006 215.20006 227.70006 241.59008 255.48009 280.4801 305.4801 319.3701 344.3701 369.3701 381.8701 404.0601 426.2501 448.4401 473.4401 485.9401 510.9401 527.5901 552.5901 577.5901 602.5901 627.5901 649.7801 663.6701 685.8601 699.7501 713.64016 738.64016 763.64016 776.14016 798.33016 817.79019 842.79019 864.98019 887.17019 901.0602 913.5602 930.2102 949.6702 963.56027 980.21029 1002.40029 1021.8603 1041.3203 1053.8203 1066.3203 1082.9703 1107.9703 1132.9703 1146.8604 1171.8604 1210.7504 1223.2504 1235.7504 1249.6404 1274.6404 1288.5304 1313.5304 1338.5304 1360.7203 1374.6104 1388.5004 1413.5004 1438.5004 1451.0004 1463.5004 1485.6903 1502.3403 1516.2304 1530.1204 1552.3103 1577.3103 1591.2003 1613.3903 1627.2803 1641.1703 1666.1703 1691.1703 1707.8203 1720.3203 1734.2103 1759.2103 1771.7103 1785.6004 1810.6004 1832.7903 1845.2903 1867.4802 1892.4802 1917.4802 1939.6702 1952.1702 1966.0602 1991.0602 2013.2501 2027.1401 2039.6401 2064.6402 2081.29 2106.29 2128.48 2150.67 2170.13 2189.5899 2202.0899 2224.2799 2249.2799 2274.2799 2286.7799 2303.4298 2325.6197 2350.6197 2367.2696 2389.4595 2408.9195 2431.1094 2456.1094">reality, linking each pronunciation aspect (stress, rhythm, intonation, articulation) to the code that process and represent</tspan></text>
<text xml:space="preserve" transform="matrix(.24 0 -0 .24 0 190.08002)" font-size="50" font-family="TimesNewRomanPSMT"><tspan y="-40" x="2470.093"> </tspan></text>
<text xml:space="preserve" transform="matrix(.24 0 -0 .24 0 190.08002)" font-size="50" font-family="TimesNewRomanPSMT"><tspan y="68" x="75 88.89 102.78 115.28 127.78 163.89 183.34999 197.24 222.24 247.24 259.74 273.62998 298.62998 312.51997 331.97999 344.47999 356.97999 393.09 415.28 427.78 449.97 472.16 497.16 509.66 523.55 548.55 570.74 595.74 609.63 623.52 640.17007 665.17007 677.67007 702.67007 724.86007 749.86007 769.32009 781.82009 801.2801 826.2801 848.4701 873.4701 885.9701 908.1601 927.6201 940.1201 979.01016 992.90017 1012.36019 1031.8202 1045.7102 1070.7102 1095.7102 1108.2102 1147.1002 1172.1002 1185.9902 1199.8803">it. Using this, we can identify gaps such as missing multi</tspan></text>
<text xml:space="preserve" transform="matrix(.24 0 -0 .24 0 190.08002)" font-size="50" font-family="TimesNewRomanPSMT"><tspan y="68" x="1213.794">-</tspan></text>
<text xml:space="preserve" transform="matrix(.24 0 -0 .24 0 190.08002)" font-size="50" font-family="TimesNewRomanPSMT"><tspan y="68" x="1230.444 1266.554 1291.554 1308.204 1333.204 1345.704 1365.164 1379.054 1395.704 1417.8939 1437.3539 1456.8139 1469.3139 1485.9639 1508.1538 1533.1538 1549.8038 1571.9938 1591.4537 1613.6437 1638.6437 1652.5337 1674.7236 1688.6137 1702.5037 1727.5037 1752.5037 1765.0037 1777.5037 1791.3937 1813.5836 1835.7736 1860.7736 1873.2736 1898.2736 1914.9236 1927.4236 1949.6135 1974.6135 1999.6135 2016.2636 2030.1536 2055.1536 2077.3436 2102.3436 2124.5335 2146.7235 2159.2235 2175.8734 2200.8734 2217.5233 2230.0233 2255.0233 2268.913 2282.803 2304.993 2329.993">word stress representation, lack of confidence for pitch </tspan></text>
<text xml:space="preserve" transform="matrix(.24 0 -0 .24 0 190.08002)" font-size="50" font-family="TimesNewRomanPSMT"><tspan y="134" x="75 97.19 122.19 144.38 158.27 183.27 202.73 216.62001 236.08">analysis,</tspan></text>
<text xml:space="preserve" transform="matrix(.24 0 -0 .24 0 190.08002)" font-size="50" font-family="TimesNewRomanPSMT"><tspan y="134" x="248.584"> </tspan></text>
<text xml:space="preserve" transform="matrix(.24 0 -0 .24 0 190.08002)" font-size="50" font-family="TimesNewRomanPSMT"><tspan y="242" x="75 97.19 122.19 147.19 159.69 176.34 198.53 212.42 229.06999 254.06999 266.57 288.76 313.76 335.95 360.95 374.84 394.30003 406.80003 419.30003 449.84 474.84 497.03 509.53 537.34 559.53 581.72006 595.61007 620.61007 637.2601 659.4501 695.56008 717.75009 739.94009 753.8301 778.8301 795.4801 807.9801 820.4801 837.1301 859.3201 884.3201 900.97018 923.16018 942.6202 964.8102 989.8102 1003.7002 1023.1602 1035.6602 1049.5502 1074.5502 1096.7401 1109.2401 1128.7001 1153.7001 1192.5901 1217.5901 1242.5901 1256.4801 1270.3701 1292.56 1305.06 1327.25 1352.25 1374.44 1391.09 1413.2799 1435.4699 1449.3599 1471.5498 1488.1998 1502.0899 1521.5498 1535.4398 1549.3298 1571.5198 1584.0198 1609.0198 1625.6698 1638.1698 1654.8198 1677.0098 1699.1997 1713.0897 1738.0897 1754.7398 1776.9297 1789.4297 1803.3197 1828.3197 1850.5097 1864.3997 1876.8997 1901.8997 1924.0896 1943.5496 1965.7395 1982.3895 1996.2796 2021.2796 2043.4695 2055.9696 2078.1595 2100.3494 2122.5394 2147.5394 2160.0394 2185.0394 2201.6893 2226.6893 2251.6893 2276.6893 2301.6893 2323.8792 2337.769 2359.959 2373.8489 2387.7388 2412.7388">and retry events. The FeatureVector. represents the symbolic characteristic or feature that describe each pronunciation</tspan></text>
<text xml:space="preserve" transform="matrix(.24 0 -0 .24 0 190.08002)" font-size="50" font-family="TimesNewRomanPSMT"><tspan y="242" x="2437.842"> </tspan></text>
<text xml:space="preserve" transform="matrix(.24 0 -0 .24 0 190.08002)" font-size="50" font-family="TimesNewRomanPSMT"><tspan y="350" x="75 97.19 116.65 141.65 163.84 186.03 199.92 213.81002 226.31002 245.77 270.77003 292.96003 317.96003 330.46003 352.65003 372.11006 384.61006 404.07008 417.96006 434.61006 456.80006 476.26008 495.7201 508.2201 520.7201 537.3701 562.3701 587.3701 601.26016 626.26016 665.15017 677.65017 690.15017 704.04019 729.04019 742.9302 767.9302 792.9302 815.1202 829.0102 842.9002 867.9002 892.9002 905.4002 917.9002 940.0902 965.0902 990.0902 1002.5902 1024.7802 1041.4302 1055.3202 1069.2102 1091.4002 1116.4002 1130.2902 1152.4801 1166.3701 1180.2601 1205.2601 1230.2601 1242.7601 1256.6502 1281.6502 1294.1502 1308.0402 1321.9302 1346.9302 1371.9302 1384.4302 1401.0802 1423.2702 1445.4601 1459.3501 1471.8501 1494.04 1519.04 1544.04 1557.93 1582.93 1595.43 1620.43 1642.62 1656.51 1678.7 1691.2 1705.09 1730.09 1742.59 1764.7799 1789.7799 1814.7799 1836.9699 1859.1598 1884.1598 1898.0498 1923.0498 1945.2398 1959.1298 1971.6298 1988.2798 2010.4697 2035.4697 2052.1197 2074.3096 2093.7696 2115.9595 2140.9595 2154.8494 2177.0394 2190.9293 2204.819 2229.819 2254.819 2274.279 2286.779 2311.779 2331.239 2353.429 2378.429 2390.929 2415.929">aspect: such as stress, rhythm, intonation, and articulation to link real audio data to conceptual representations used by</tspan></text>
<text xml:space="preserve" transform="matrix(.24 0 -0 .24 0 190.08002)" font-size="50" font-family="TimesNewRomanPSMT"><tspan y="350" x="2441.016"> </tspan></text>
<text xml:space="preserve" transform="matrix(.24 0 -0 .24 0 190.08002)" font-size="50" font-family="TimesNewRomanPSMT"><tspan y="457" x="75 88.89 113.89 136.08 148.58 170.77 195.77 220.77 242.96">the code.</tspan></text>
<text xml:space="preserve" transform="matrix(.24 0 -0 .24 0 190.08002)" font-size="50" font-family="TimesNewRomanPSMT"><tspan y="457" x="255.4688"> </tspan></text>
</svg>
