<?xml version="1.0" encoding="us-ascii" standalone="no"?><svg xmlns="http://www.w3.org/2000/svg" xmlns:xlink="http://www.w3.org/1999/xlink" contentStyleType="text/css" height="1008px" preserveAspectRatio="none" style="width:1535px;height:1008px;background:#FFFFFF;" version="1.1" viewBox="0 0 1535 1008" width="1535px" zoomAndPan="magnify"><defs/><g><line style="stroke:#181818;stroke-width:0.5;stroke-dasharray:5.0,5.0;" x1="22" x2="22" y1="82.6094" y2="926.3984"/><line style="stroke:#181818;stroke-width:0.5;stroke-dasharray:5.0,5.0;" x1="159.5" x2="159.5" y1="82.6094" y2="926.3984"/><line style="stroke:#181818;stroke-width:0.5;stroke-dasharray:5.0,5.0;" x1="268" x2="268" y1="82.6094" y2="926.3984"/><line style="stroke:#181818;stroke-width:0.5;stroke-dasharray:5.0,5.0;" x1="452" x2="452" y1="82.6094" y2="926.3984"/><line style="stroke:#181818;stroke-width:0.5;stroke-dasharray:5.0,5.0;" x1="524" x2="524" y1="82.6094" y2="926.3984"/><line style="stroke:#181818;stroke-width:0.5;stroke-dasharray:5.0,5.0;" x1="789.5" x2="789.5" y1="82.6094" y2="926.3984"/><line style="stroke:#181818;stroke-width:0.5;stroke-dasharray:5.0,5.0;" x1="936" x2="936" y1="82.6094" y2="926.3984"/><line style="stroke:#181818;stroke-width:0.5;stroke-dasharray:5.0,5.0;" x1="1129" x2="1129" y1="82.6094" y2="926.3984"/><line style="stroke:#181818;stroke-width:0.5;stroke-dasharray:5.0,5.0;" x1="1405.5" x2="1405.5" y1="82.6094" y2="926.3984"/><text fill="#000000" font-family="sans-serif" font-size="14" lengthAdjust="spacing" textLength="29" x="5" y="79.5332">User</text><ellipse cx="22.5" cy="13.5" fill="#E2E2F0" rx="8" ry="8" style="stroke:#181818;stroke-width:0.5;"/><path d="M22.5,21.5 L22.5,48.5 M9.5,29.5 L35.5,29.5 M22.5,48.5 L9.5,63.5 M22.5,48.5 L35.5,63.5 " fill="none" style="stroke:#181818;stroke-width:0.5;"/><text fill="#000000" font-family="sans-serif" font-size="14" lengthAdjust="spacing" textLength="29" x="5" y="939.9316">User</text><ellipse cx="22.5" cy="951.5078" fill="#E2E2F0" rx="8" ry="8" style="stroke:#181818;stroke-width:0.5;"/><path d="M22.5,959.5078 L22.5,986.5078 M9.5,967.5078 L35.5,967.5078 M22.5,986.5078 L9.5,1001.5078 M22.5,986.5078 L35.5,1001.5078 " fill="none" style="stroke:#181818;stroke-width:0.5;"/><rect fill="#E2E2F0" height="31.6094" rx="2.5" ry="2.5" style="stroke:#181818;stroke-width:0.5;" width="128" x="95.5" y="50"/><text fill="#000000" font-family="sans-serif" font-size="14" lengthAdjust="spacing" textLength="114" x="102.5" y="71.5332">HomeScreenState</text><rect fill="#E2E2F0" height="31.6094" rx="2.5" ry="2.5" style="stroke:#181818;stroke-width:0.5;" width="128" x="95.5" y="925.3984"/><text fill="#000000" font-family="sans-serif" font-size="14" lengthAdjust="spacing" textLength="114" x="102.5" y="946.9316">HomeScreenState</text><rect fill="#E2E2F0" height="31.6094" rx="2.5" ry="2.5" style="stroke:#181818;stroke-width:0.5;" width="65" x="236" y="50"/><text fill="#000000" font-family="sans-serif" font-size="14" lengthAdjust="spacing" textLength="51" x="243" y="71.5332">Scaffold</text><rect fill="#E2E2F0" height="31.6094" rx="2.5" ry="2.5" style="stroke:#181818;stroke-width:0.5;" width="65" x="236" y="925.3984"/><text fill="#000000" font-family="sans-serif" font-size="14" lengthAdjust="spacing" textLength="51" x="243" y="946.9316">Scaffold</text><rect fill="#E2E2F0" height="31.6094" rx="2.5" ry="2.5" style="stroke:#181818;stroke-width:0.5;" width="61" x="422" y="50"/><text fill="#000000" font-family="sans-serif" font-size="14" lengthAdjust="spacing" textLength="47" x="429" y="71.5332">AppBar</text><rect fill="#E2E2F0" height="31.6094" rx="2.5" ry="2.5" style="stroke:#181818;stroke-width:0.5;" width="61" x="422" y="925.3984"/><text fill="#000000" font-family="sans-serif" font-size="14" lengthAdjust="spacing" textLength="47" x="429" y="946.9316">AppBar</text><rect fill="#E2E2F0" height="31.6094" rx="2.5" ry="2.5" style="stroke:#181818;stroke-width:0.5;" width="62" x="493" y="50"/><text fill="#000000" font-family="sans-serif" font-size="14" lengthAdjust="spacing" textLength="48" x="500" y="71.5332">Column</text><rect fill="#E2E2F0" height="31.6094" rx="2.5" ry="2.5" style="stroke:#181818;stroke-width:0.5;" width="62" x="493" y="925.3984"/><text fill="#000000" font-family="sans-serif" font-size="14" lengthAdjust="spacing" textLength="48" x="500" y="946.9316">Column</text><rect fill="#E2E2F0" height="31.6094" rx="2.5" ry="2.5" style="stroke:#181818;stroke-width:0.5;" width="89" x="745.5" y="50"/><text fill="#000000" font-family="sans-serif" font-size="14" lengthAdjust="spacing" textLength="75" x="752.5" y="71.5332">UserInfoBox</text><rect fill="#E2E2F0" height="31.6094" rx="2.5" ry="2.5" style="stroke:#181818;stroke-width:0.5;" width="89" x="745.5" y="925.3984"/><text fill="#000000" font-family="sans-serif" font-size="14" lengthAdjust="spacing" textLength="75" x="752.5" y="946.9316">UserInfoBox</text><rect fill="#E2E2F0" height="31.6094" rx="2.5" ry="2.5" style="stroke:#181818;stroke-width:0.5;" width="126" x="873" y="50"/><text fill="#000000" font-family="sans-serif" font-size="14" lengthAdjust="spacing" textLength="112" x="880" y="71.5332">WelcomeBackBox</text><rect fill="#E2E2F0" height="31.6094" rx="2.5" ry="2.5" style="stroke:#181818;stroke-width:0.5;" width="126" x="873" y="925.3984"/><text fill="#000000" font-family="sans-serif" font-size="14" lengthAdjust="spacing" textLength="112" x="880" y="946.9316">WelcomeBackBox</text><rect fill="#E2E2F0" height="31.6094" rx="2.5" ry="2.5" style="stroke:#181818;stroke-width:0.5;" width="104" x="1077" y="50"/><text fill="#000000" font-family="sans-serif" font-size="14" lengthAdjust="spacing" textLength="90" x="1084" y="71.5332">HomeSections</text><rect fill="#E2E2F0" height="31.6094" rx="2.5" ry="2.5" style="stroke:#181818;stroke-width:0.5;" width="104" x="1077" y="925.3984"/><text fill="#000000" font-family="sans-serif" font-size="14" lengthAdjust="spacing" textLength="90" x="1084" y="946.9316">HomeSections</text><rect fill="#E2E2F0" height="31.6094" rx="2.5" ry="2.5" style="stroke:#181818;stroke-width:0.5;" width="89" x="1361.5" y="50"/><text fill="#000000" font-family="sans-serif" font-size="14" lengthAdjust="spacing" textLength="75" x="1368.5" y="71.5332">ActivityCard</text><rect fill="#E2E2F0" height="31.6094" rx="2.5" ry="2.5" style="stroke:#181818;stroke-width:0.5;" width="89" x="1361.5" y="925.3984"/><text fill="#000000" font-family="sans-serif" font-size="14" lengthAdjust="spacing" textLength="75" x="1368.5" y="946.9316">ActivityCard</text><polygon fill="#181818" points="147.5,110.9609,157.5,114.9609,147.5,118.9609,151.5,114.9609" style="stroke:#181818;stroke-width:1.0;"/><line style="stroke:#181818;stroke-width:1.0;" x1="22.5" x2="153.5" y1="114.9609" y2="114.9609"/><text fill="#000000" font-family="sans-serif" font-size="13" lengthAdjust="spacing" textLength="100" x="29.5" y="110.1045">open Home Page</text><polygon fill="#181818" points="256.5,141.3125,266.5,145.3125,256.5,149.3125,260.5,145.3125" style="stroke:#181818;stroke-width:1.0;"/><line style="stroke:#181818;stroke-width:1.0;" x1="159.5" x2="262.5" y1="145.3125" y2="145.3125"/><text fill="#000000" font-family="sans-serif" font-size="13" lengthAdjust="spacing" textLength="85" x="166.5" y="140.4561">build Scaffold()</text><polygon fill="#181818" points="440.5,171.6641,450.5,175.6641,440.5,179.6641,444.5,175.6641" style="stroke:#181818;stroke-width:1.0;"/><line style="stroke:#181818;stroke-width:1.0;" x1="268.5" x2="446.5" y1="175.6641" y2="175.6641"/><text fill="#000000" font-family="sans-serif" font-size="13" lengthAdjust="spacing" textLength="160" x="275.5" y="170.8076">build AppBar("Home Page")</text><polygon fill="#181818" points="512,202.0156,522,206.0156,512,210.0156,516,206.0156" style="stroke:#181818;stroke-width:1.0;"/><line style="stroke:#181818;stroke-width:1.0;" x1="268.5" x2="518" y1="206.0156" y2="206.0156"/><text fill="#000000" font-family="sans-serif" font-size="13" lengthAdjust="spacing" textLength="117" x="275.5" y="201.1592">build Body Column()</text><polygon fill="#181818" points="778,232.3672,788,236.3672,778,240.3672,782,236.3672" style="stroke:#181818;stroke-width:1.0;"/><line style="stroke:#181818;stroke-width:1.0;" x1="524" x2="784" y1="236.3672" y2="236.3672"/><text fill="#000000" font-family="sans-serif" font-size="13" lengthAdjust="spacing" textLength="242" x="531" y="231.5107">create(name, avatarURL, proficiencyLevel)</text><line style="stroke:#181818;stroke-width:1.0;" x1="790" x2="832" y1="266.7188" y2="266.7188"/><line style="stroke:#181818;stroke-width:1.0;" x1="832" x2="832" y1="266.7188" y2="279.7188"/><line style="stroke:#181818;stroke-width:1.0;" x1="791" x2="832" y1="279.7188" y2="279.7188"/><polygon fill="#181818" points="801,275.7188,791,279.7188,801,283.7188,797,279.7188" style="stroke:#181818;stroke-width:1.0;"/><text fill="#000000" font-family="sans-serif" font-size="13" lengthAdjust="spacing" textLength="132" x="797" y="261.8623">build avatar, stats, text</text><polygon fill="#181818" points="535,306.0703,525,310.0703,535,314.0703,531,310.0703" style="stroke:#181818;stroke-width:1.0;"/><line style="stroke:#181818;stroke-width:1.0;" x1="529" x2="789" y1="310.0703" y2="310.0703"/><text fill="#000000" font-family="sans-serif" font-size="13" lengthAdjust="spacing" textLength="78" x="541" y="305.2139">return Widget</text><polygon fill="#181818" points="924,336.4219,934,340.4219,924,344.4219,928,340.4219" style="stroke:#181818;stroke-width:1.0;"/><line style="stroke:#181818;stroke-width:1.0;" x1="524" x2="930" y1="340.4219" y2="340.4219"/><text fill="#000000" font-family="sans-serif" font-size="13" lengthAdjust="spacing" textLength="76" x="531" y="335.5654">create(name)</text><line style="stroke:#181818;stroke-width:1.0;" x1="936" x2="978" y1="370.7734" y2="370.7734"/><line style="stroke:#181818;stroke-width:1.0;" x1="978" x2="978" y1="370.7734" y2="383.7734"/><line style="stroke:#181818;stroke-width:1.0;" x1="937" x2="978" y1="383.7734" y2="383.7734"/><polygon fill="#181818" points="947,379.7734,937,383.7734,947,387.7734,943,383.7734" style="stroke:#181818;stroke-width:1.0;"/><text fill="#000000" font-family="sans-serif" font-size="13" lengthAdjust="spacing" textLength="179" x="943" y="365.917">build greeting, subtext, buttons</text><polygon fill="#181818" points="535,410.125,525,414.125,535,418.125,531,414.125" style="stroke:#181818;stroke-width:1.0;"/><line style="stroke:#181818;stroke-width:1.0;" x1="529" x2="935" y1="414.125" y2="414.125"/><text fill="#000000" font-family="sans-serif" font-size="13" lengthAdjust="spacing" textLength="78" x="541" y="409.2686">return Widget</text><polygon fill="#181818" points="1117,440.4766,1127,444.4766,1117,448.4766,1121,444.4766" style="stroke:#181818;stroke-width:1.0;"/><line style="stroke:#181818;stroke-width:1.0;" x1="524" x2="1123" y1="444.4766" y2="444.4766"/><text fill="#000000" font-family="sans-serif" font-size="13" lengthAdjust="spacing" textLength="44" x="531" y="439.6201">create()</text><polygon fill="#181818" points="535,470.8281,525,474.8281,535,478.8281,531,474.8281" style="stroke:#181818;stroke-width:1.0;"/><line style="stroke:#181818;stroke-width:1.0;" x1="529" x2="1128" y1="474.8281" y2="474.8281"/><text fill="#000000" font-family="sans-serif" font-size="13" lengthAdjust="spacing" textLength="129" x="541" y="469.9717">build internal Column()</text><polygon fill="#181818" points="1394,501.1797,1404,505.1797,1394,509.1797,1398,505.1797" style="stroke:#181818;stroke-width:1.0;"/><line style="stroke:#181818;stroke-width:1.0;" x1="1129" x2="1400" y1="505.1797" y2="505.1797"/><text fill="#000000" font-family="sans-serif" font-size="13" lengthAdjust="spacing" textLength="190" x="1136" y="500.3232">create(icon: book, title: Lessons)</text><line style="stroke:#181818;stroke-width:1.0;" x1="1406" x2="1448" y1="535.5313" y2="535.5313"/><line style="stroke:#181818;stroke-width:1.0;" x1="1448" x2="1448" y1="535.5313" y2="548.5313"/><line style="stroke:#181818;stroke-width:1.0;" x1="1407" x2="1448" y1="548.5313" y2="548.5313"/><polygon fill="#181818" points="1417,544.5313,1407,548.5313,1417,552.5313,1413,548.5313" style="stroke:#181818;stroke-width:1.0;"/><text fill="#000000" font-family="sans-serif" font-size="13" lengthAdjust="spacing" textLength="115" x="1413" y="530.6748">build Card + ListTile</text><polygon fill="#181818" points="1140,574.8828,1130,578.8828,1140,582.8828,1136,578.8828" style="stroke:#181818;stroke-width:1.0;"/><line style="stroke:#181818;stroke-width:1.0;" x1="1134" x2="1405" y1="578.8828" y2="578.8828"/><text fill="#000000" font-family="sans-serif" font-size="13" lengthAdjust="spacing" textLength="78" x="1146" y="574.0264">return Widget</text><polygon fill="#181818" points="1394,605.2344,1404,609.2344,1394,613.2344,1398,609.2344" style="stroke:#181818;stroke-width:1.0;"/><line style="stroke:#181818;stroke-width:1.0;" x1="1129" x2="1400" y1="609.2344" y2="609.2344"/><text fill="#000000" font-family="sans-serif" font-size="13" lengthAdjust="spacing" textLength="215" x="1136" y="604.3779">create(icon: mic, title: Daily Practice)</text><line style="stroke:#181818;stroke-width:1.0;" x1="1406" x2="1448" y1="639.5859" y2="639.5859"/><line style="stroke:#181818;stroke-width:1.0;" x1="1448" x2="1448" y1="639.5859" y2="652.5859"/><line style="stroke:#181818;stroke-width:1.0;" x1="1407" x2="1448" y1="652.5859" y2="652.5859"/><polygon fill="#181818" points="1417,648.5859,1407,652.5859,1417,656.5859,1413,652.5859" style="stroke:#181818;stroke-width:1.0;"/><text fill="#000000" font-family="sans-serif" font-size="13" lengthAdjust="spacing" textLength="115" x="1413" y="634.7295">build Card + ListTile</text><polygon fill="#181818" points="1140,678.9375,1130,682.9375,1140,686.9375,1136,682.9375" style="stroke:#181818;stroke-width:1.0;"/><line style="stroke:#181818;stroke-width:1.0;" x1="1134" x2="1405" y1="682.9375" y2="682.9375"/><text fill="#000000" font-family="sans-serif" font-size="13" lengthAdjust="spacing" textLength="78" x="1146" y="678.0811">return Widget</text><polygon fill="#181818" points="1394,709.2891,1404,713.2891,1394,717.2891,1398,713.2891" style="stroke:#181818;stroke-width:1.0;"/><line style="stroke:#181818;stroke-width:1.0;" x1="1129" x2="1400" y1="713.2891" y2="713.2891"/><text fill="#000000" font-family="sans-serif" font-size="13" lengthAdjust="spacing" textLength="253" x="1136" y="708.4326">create(icon: flag, title: Objetivos semanales)</text><line style="stroke:#181818;stroke-width:1.0;" x1="1406" x2="1448" y1="743.6406" y2="743.6406"/><line style="stroke:#181818;stroke-width:1.0;" x1="1448" x2="1448" y1="743.6406" y2="756.6406"/><line style="stroke:#181818;stroke-width:1.0;" x1="1407" x2="1448" y1="756.6406" y2="756.6406"/><polygon fill="#181818" points="1417,752.6406,1407,756.6406,1417,760.6406,1413,756.6406" style="stroke:#181818;stroke-width:1.0;"/><text fill="#000000" font-family="sans-serif" font-size="13" lengthAdjust="spacing" textLength="115" x="1413" y="738.7842">build Card + ListTile</text><polygon fill="#181818" points="1140,782.9922,1130,786.9922,1140,790.9922,1136,786.9922" style="stroke:#181818;stroke-width:1.0;"/><line style="stroke:#181818;stroke-width:1.0;" x1="1134" x2="1405" y1="786.9922" y2="786.9922"/><text fill="#000000" font-family="sans-serif" font-size="13" lengthAdjust="spacing" textLength="78" x="1146" y="782.1357">return Widget</text><polygon fill="#181818" points="535,813.3438,525,817.3438,535,821.3438,531,817.3438" style="stroke:#181818;stroke-width:1.0;"/><line style="stroke:#181818;stroke-width:1.0;" x1="529" x2="1128" y1="817.3438" y2="817.3438"/><text fill="#000000" font-family="sans-serif" font-size="13" lengthAdjust="spacing" textLength="78" x="541" y="812.4873">return Widget</text><polygon fill="#181818" points="279.5,843.6953,269.5,847.6953,279.5,851.6953,275.5,847.6953" style="stroke:#181818;stroke-width:1.0;"/><line style="stroke:#181818;stroke-width:1.0;" x1="273.5" x2="523" y1="847.6953" y2="847.6953"/><text fill="#000000" font-family="sans-serif" font-size="13" lengthAdjust="spacing" textLength="161" x="285.5" y="842.8389">return complete body layout</text><polygon fill="#181818" points="170.5,874.0469,160.5,878.0469,170.5,882.0469,166.5,878.0469" style="stroke:#181818;stroke-width:1.0;"/><line style="stroke:#181818;stroke-width:1.0;" x1="164.5" x2="267.5" y1="878.0469" y2="878.0469"/><text fill="#000000" font-family="sans-serif" font-size="13" lengthAdjust="spacing" textLength="77" x="176.5" y="873.1904">return built UI</text><polygon fill="#181818" points="33.5,904.3984,23.5,908.3984,33.5,912.3984,29.5,908.3984" style="stroke:#181818;stroke-width:1.0;"/><line style="stroke:#181818;stroke-width:1.0;" x1="27.5" x2="158.5" y1="908.3984" y2="908.3984"/><text fill="#000000" font-family="sans-serif" font-size="13" lengthAdjust="spacing" textLength="113" x="39.5" y="903.542">display Home Page</text><!--SRC=[nLJ1Rjim3BthAuXU6cFsOTlDQ0OitM450gnOLlJCoBIXLfOCIGwQlvyKnOvbfuTUjbjCFZw-9p94xhI19qk6iGwD4rnqg1pyr2tjk25IEuUEajoEOrrhMIN1xrstGPE4xhNiMvM4GgC7LUkDValYpoIvxxX1_ZfFdPGGTq8hctRqiODmntiq5ME16OflS-4bw8xKAGgFs12RvKF9uAU4VIzaDNwlCZRy3B3eS035hzNDo7oJegFv0RtHrV4Sygpi5jRhzVGnm2l2O34aM0G6bWcaZ1XQAMmf1poWG_FqUvj3PtJj7uKKFsxfG39ZK-OvInGKotEm_X5i3exUtD3shaWB3BdUA7WMLKDkq9uEx3tvAIfnaB4PnHLubDhuOJcX6Y-stmUXkKyu5zRXedXUUbNqT9NUapp5Z88pbfGknYkK8wDG9YCkYYBPKVXSmfQiFJ4KnO9oYXqx2wv35wrV_P24apHoP2mXNn14PQVS9zWAw_u8IMdJks9MitYrXOSl9Vn08O_mQD37ENtKIYluw2Hb-Z-6lfRmQ__Y5-oWBLXgqO-HFZoWMc8pshh2zm-yNVuBwGgdiF54UTommsU4__zqaln9t8TZ9V6eUxSubxxiSYxFXK6yF-qFyGOF0gOtk1AsyuINC_mN]--></g></svg>