<?xml version="1.0" encoding="us-ascii" standalone="no"?><svg xmlns="http://www.w3.org/2000/svg" xmlns:xlink="http://www.w3.org/1999/xlink" contentStyleType="text/css" height="670px" preserveAspectRatio="none" style="width:1517px;height:670px;background:#FFFFFF;" version="1.1" viewBox="0 0 1517 670" width="1517px" zoomAndPan="magnify"><defs/><g><line style="stroke:#181818;stroke-width:0.5;stroke-dasharray:5.0,5.0;" x1="63" x2="63" y1="82.6094" y2="588.2344"/><line style="stroke:#181818;stroke-width:0.5;stroke-dasharray:5.0,5.0;" x1="195" x2="195" y1="82.6094" y2="588.2344"/><line style="stroke:#181818;stroke-width:0.5;stroke-dasharray:5.0,5.0;" x1="479" x2="479" y1="82.6094" y2="588.2344"/><line style="stroke:#181818;stroke-width:0.5;stroke-dasharray:5.0,5.0;" x1="643" x2="643" y1="82.6094" y2="588.2344"/><line style="stroke:#181818;stroke-width:0.5;stroke-dasharray:5.0,5.0;" x1="1013.5" x2="1013.5" y1="82.6094" y2="588.2344"/><line style="stroke:#181818;stroke-width:0.5;stroke-dasharray:5.0,5.0;" x1="1064.5" x2="1064.5" y1="82.6094" y2="588.2344"/><line style="stroke:#181818;stroke-width:0.5;stroke-dasharray:5.0,5.0;" x1="1338" x2="1338" y1="82.6094" y2="588.2344"/><line style="stroke:#181818;stroke-width:0.5;stroke-dasharray:5.0,5.0;" x1="1457" x2="1457" y1="82.6094" y2="588.2344"/><text fill="#000000" font-family="sans-serif" font-size="14" lengthAdjust="spacing" textLength="111" x="5" y="79.5332">FlutterFramework</text><ellipse cx="63.5" cy="13.5" fill="#E2E2F0" rx="8" ry="8" style="stroke:#181818;stroke-width:0.5;"/><path d="M63.5,21.5 L63.5,48.5 M50.5,29.5 L76.5,29.5 M63.5,48.5 L50.5,63.5 M63.5,48.5 L76.5,63.5 " fill="none" style="stroke:#181818;stroke-width:0.5;"/><text fill="#000000" font-family="sans-serif" font-size="14" lengthAdjust="spacing" textLength="111" x="5" y="601.7676">FlutterFramework</text><ellipse cx="63.5" cy="613.3438" fill="#E2E2F0" rx="8" ry="8" style="stroke:#181818;stroke-width:0.5;"/><path d="M63.5,621.3438 L63.5,648.3438 M50.5,629.3438 L76.5,629.3438 M63.5,648.3438 L50.5,663.3438 M63.5,648.3438 L76.5,663.3438 " fill="none" style="stroke:#181818;stroke-width:0.5;"/><rect fill="#E2E2F0" height="31.6094" rx="2.5" ry="2.5" style="stroke:#181818;stroke-width:0.5;" width="126" x="132" y="50"/><text fill="#000000" font-family="sans-serif" font-size="14" lengthAdjust="spacing" textLength="112" x="139" y="71.5332">WelcomeBackBox</text><rect fill="#E2E2F0" height="31.6094" rx="2.5" ry="2.5" style="stroke:#181818;stroke-width:0.5;" width="126" x="132" y="587.2344"/><text fill="#000000" font-family="sans-serif" font-size="14" lengthAdjust="spacing" textLength="112" x="139" y="608.7676">WelcomeBackBox</text><rect fill="#E2E2F0" height="31.6094" rx="2.5" ry="2.5" style="stroke:#181818;stroke-width:0.5;" width="76" x="441" y="50"/><text fill="#000000" font-family="sans-serif" font-size="14" lengthAdjust="spacing" textLength="62" x="448" y="71.5332">Container</text><rect fill="#E2E2F0" height="31.6094" rx="2.5" ry="2.5" style="stroke:#181818;stroke-width:0.5;" width="76" x="441" y="587.2344"/><text fill="#000000" font-family="sans-serif" font-size="14" lengthAdjust="spacing" textLength="62" x="448" y="608.7676">Container</text><rect fill="#E2E2F0" height="31.6094" rx="2.5" ry="2.5" style="stroke:#181818;stroke-width:0.5;" width="62" x="612" y="50"/><text fill="#000000" font-family="sans-serif" font-size="14" lengthAdjust="spacing" textLength="48" x="619" y="71.5332">Column</text><rect fill="#E2E2F0" height="31.6094" rx="2.5" ry="2.5" style="stroke:#181818;stroke-width:0.5;" width="62" x="612" y="587.2344"/><text fill="#000000" font-family="sans-serif" font-size="14" lengthAdjust="spacing" textLength="48" x="619" y="608.7676">Column</text><rect fill="#E2E2F0" height="31.6094" rx="2.5" ry="2.5" style="stroke:#181818;stroke-width:0.5;" width="41" x="993.5" y="50"/><text fill="#000000" font-family="sans-serif" font-size="14" lengthAdjust="spacing" textLength="27" x="1000.5" y="71.5332">Text</text><rect fill="#E2E2F0" height="31.6094" rx="2.5" ry="2.5" style="stroke:#181818;stroke-width:0.5;" width="41" x="993.5" y="587.2344"/><text fill="#000000" font-family="sans-serif" font-size="14" lengthAdjust="spacing" textLength="27" x="1000.5" y="608.7676">Text</text><rect fill="#E2E2F0" height="31.6094" rx="2.5" ry="2.5" style="stroke:#181818;stroke-width:0.5;" width="41" x="1044.5" y="50"/><text fill="#000000" font-family="sans-serif" font-size="14" lengthAdjust="spacing" textLength="27" x="1051.5" y="71.5332">Row</text><rect fill="#E2E2F0" height="31.6094" rx="2.5" ry="2.5" style="stroke:#181818;stroke-width:0.5;" width="41" x="1044.5" y="587.2344"/><text fill="#000000" font-family="sans-serif" font-size="14" lengthAdjust="spacing" textLength="27" x="1051.5" y="608.7676">Row</text><rect fill="#E2E2F0" height="31.6094" rx="2.5" ry="2.5" style="stroke:#181818;stroke-width:0.5;" width="110" x="1283" y="50"/><text fill="#000000" font-family="sans-serif" font-size="14" lengthAdjust="spacing" textLength="96" x="1290" y="71.5332">ElevatedButton</text><rect fill="#E2E2F0" height="31.6094" rx="2.5" ry="2.5" style="stroke:#181818;stroke-width:0.5;" width="110" x="1283" y="587.2344"/><text fill="#000000" font-family="sans-serif" font-size="14" lengthAdjust="spacing" textLength="96" x="1290" y="608.7676">ElevatedButton</text><rect fill="#E2E2F0" height="31.6094" rx="2.5" ry="2.5" style="stroke:#181818;stroke-width:0.5;" width="108" x="1403" y="50"/><text fill="#000000" font-family="sans-serif" font-size="14" lengthAdjust="spacing" textLength="94" x="1410" y="71.5332">OutlinedButton</text><rect fill="#E2E2F0" height="31.6094" rx="2.5" ry="2.5" style="stroke:#181818;stroke-width:0.5;" width="108" x="1403" y="587.2344"/><text fill="#000000" font-family="sans-serif" font-size="14" lengthAdjust="spacing" textLength="94" x="1410" y="608.7676">OutlinedButton</text><polygon fill="#181818" points="183,110.9609,193,114.9609,183,118.9609,187,114.9609" style="stroke:#181818;stroke-width:1.0;"/><line style="stroke:#181818;stroke-width:1.0;" x1="63.5" x2="189" y1="114.9609" y2="114.9609"/><text fill="#000000" font-family="sans-serif" font-size="13" lengthAdjust="spacing" textLength="102" x="70.5" y="110.1045">call build(context)</text><polygon fill="#181818" points="467,141.3125,477,145.3125,467,149.3125,471,145.3125" style="stroke:#181818;stroke-width:1.0;"/><line style="stroke:#181818;stroke-width:1.0;" x1="195" x2="473" y1="145.3125" y2="145.3125"/><text fill="#000000" font-family="sans-serif" font-size="13" lengthAdjust="spacing" textLength="260" x="202" y="140.4561">create() with margin, padding, BoxDecoration</text><polygon fill="#181818" points="631,171.6641,641,175.6641,631,179.6641,635,175.6641" style="stroke:#181818;stroke-width:1.0;"/><line style="stroke:#181818;stroke-width:1.0;" x1="479" x2="637" y1="175.6641" y2="175.6641"/><text fill="#000000" font-family="sans-serif" font-size="13" lengthAdjust="spacing" textLength="140" x="486" y="170.8076">create() (children layout)</text><polygon fill="#181818" points="1002,202.0156,1012,206.0156,1002,210.0156,1006,206.0156" style="stroke:#181818;stroke-width:1.0;"/><line style="stroke:#181818;stroke-width:1.0;" x1="643" x2="1008" y1="206.0156" y2="206.0156"/><text fill="#000000" font-family="sans-serif" font-size="13" lengthAdjust="spacing" textLength="347" x="650" y="201.1592">create("Good to have you back, $name &#128075;", style: heading2)</text><polygon fill="#181818" points="654,232.3672,644,236.3672,654,240.3672,650,236.3672" style="stroke:#181818;stroke-width:1.0;"/><line style="stroke:#181818;stroke-width:1.0;" x1="648" x2="1013" y1="236.3672" y2="236.3672"/><text fill="#000000" font-family="sans-serif" font-size="13" lengthAdjust="spacing" textLength="78" x="660" y="231.5107">return Widget</text><polygon fill="#181818" points="1002,262.7188,1012,266.7188,1002,270.7188,1006,266.7188" style="stroke:#181818;stroke-width:1.0;"/><line style="stroke:#181818;stroke-width:1.0;" x1="643" x2="1008" y1="266.7188" y2="266.7188"/><text fill="#000000" font-family="sans-serif" font-size="13" lengthAdjust="spacing" textLength="306" x="650" y="261.8623">create("Continue your progress", style: bodyMedium)</text><polygon fill="#181818" points="654,293.0703,644,297.0703,654,301.0703,650,297.0703" style="stroke:#181818;stroke-width:1.0;"/><line style="stroke:#181818;stroke-width:1.0;" x1="648" x2="1013" y1="297.0703" y2="297.0703"/><text fill="#000000" font-family="sans-serif" font-size="13" lengthAdjust="spacing" textLength="78" x="660" y="292.2139">return Widget</text><polygon fill="#181818" points="1053,323.4219,1063,327.4219,1053,331.4219,1057,327.4219" style="stroke:#181818;stroke-width:1.0;"/><line style="stroke:#181818;stroke-width:1.0;" x1="643" x2="1059" y1="327.4219" y2="327.4219"/><text fill="#000000" font-family="sans-serif" font-size="13" lengthAdjust="spacing" textLength="44" x="650" y="322.5654">create()</text><polygon fill="#181818" points="1326,353.7734,1336,357.7734,1326,361.7734,1330,357.7734" style="stroke:#181818;stroke-width:1.0;"/><line style="stroke:#181818;stroke-width:1.0;" x1="1065" x2="1332" y1="357.7734" y2="357.7734"/><text fill="#000000" font-family="sans-serif" font-size="13" lengthAdjust="spacing" textLength="249" x="1072" y="352.917">create("Continue Lesson", onPressed: null)</text><polygon fill="#181818" points="1445,384.125,1455,388.125,1445,392.125,1449,388.125" style="stroke:#181818;stroke-width:1.0;"/><line style="stroke:#181818;stroke-width:1.0;" x1="1065" x2="1451" y1="388.125" y2="388.125"/><text fill="#000000" font-family="sans-serif" font-size="13" lengthAdjust="spacing" textLength="230" x="1072" y="383.2686">create("Fast Practice", onPressed: null)</text><polygon fill="#181818" points="1076,414.4766,1066,418.4766,1076,422.4766,1072,418.4766" style="stroke:#181818;stroke-width:1.0;"/><line style="stroke:#181818;stroke-width:1.0;" x1="1070" x2="1337" y1="418.4766" y2="418.4766"/><text fill="#000000" font-family="sans-serif" font-size="13" lengthAdjust="spacing" textLength="78" x="1082" y="413.6201">return Widget</text><polygon fill="#181818" points="1076,444.8281,1066,448.8281,1076,452.8281,1072,448.8281" style="stroke:#181818;stroke-width:1.0;"/><line style="stroke:#181818;stroke-width:1.0;" x1="1070" x2="1456" y1="448.8281" y2="448.8281"/><text fill="#000000" font-family="sans-serif" font-size="13" lengthAdjust="spacing" textLength="78" x="1082" y="443.9717">return Widget</text><polygon fill="#181818" points="654,475.1797,644,479.1797,654,483.1797,650,479.1797" style="stroke:#181818;stroke-width:1.0;"/><line style="stroke:#181818;stroke-width:1.0;" x1="648" x2="1064" y1="479.1797" y2="479.1797"/><text fill="#000000" font-family="sans-serif" font-size="13" lengthAdjust="spacing" textLength="107" x="660" y="474.3232">return Row Widget</text><polygon fill="#181818" points="490,505.5313,480,509.5313,490,513.5313,486,509.5313" style="stroke:#181818;stroke-width:1.0;"/><line style="stroke:#181818;stroke-width:1.0;" x1="484" x2="642" y1="509.5313" y2="509.5313"/><text fill="#000000" font-family="sans-serif" font-size="13" lengthAdjust="spacing" textLength="119" x="496" y="504.6748">return content layout</text><polygon fill="#181818" points="206,535.8828,196,539.8828,206,543.8828,202,539.8828" style="stroke:#181818;stroke-width:1.0;"/><line style="stroke:#181818;stroke-width:1.0;" x1="200" x2="478" y1="539.8828" y2="539.8828"/><text fill="#000000" font-family="sans-serif" font-size="13" lengthAdjust="spacing" textLength="106" x="212" y="535.0264">return built Widget</text><polygon fill="#181818" points="74.5,566.2344,64.5,570.2344,74.5,574.2344,70.5,570.2344" style="stroke:#181818;stroke-width:1.0;"/><line style="stroke:#181818;stroke-width:1.0;" x1="68.5" x2="194" y1="570.2344" y2="570.2344"/><text fill="#000000" font-family="sans-serif" font-size="13" lengthAdjust="spacing" textLength="97" x="80.5" y="565.3779">render on screen</text><!--SRC=[ZLFDZXCn3BxFKrWh95gfS-5OeJqKw5v0h01fpsbYjT5cuihZRBVFm8adu1Lv19pfJ8S441pZ-FknyyLO8OPjI2B8MpOTdeWVcwDXyTOVJHHum62fmusnZnjwBgxUK1JZ8t9L3QcBHUaBFajH-4Idulmku9CHT1irGYNsOvAW6jDLKvk5zhRok0PhGe1Tyi4jh7fKzMLJzcJKrRu265L-iOIJbmDqXlS-hk1edFDnlm85l4LBRCIhXIlkGfAd_OLXOG-gonWXc3CbLMvUGjksSCU8edIG_UHASy5cbhoWAyVD7P438JYO9mJbW9sQNi6Bg2F3Z-_Vljwie9Tpm3KSq6IBhvOJsUjs96EKn14UlDkZJ1u-fzq_rVDuFgP1cU78j6Vi-rboH-xy0PrFtN-ANbwkpuzU2MjbtbpJ30stLHZ-OEoz-g6eZYZUPs_erX1J2Ck9eSpCpB0rlS0z6wlfmh_XTPZQGJdMs5IBb4tpPeOXnyiCdPOpnqYRfXYDVKDgDVoN2DNP7VglsHqXEUuoaV_sIHHIVnADg5DnYj3hVZ3-1000]--></g></svg>