<?xml version="1.0" encoding="us-ascii" standalone="no"?><svg xmlns="http://www.w3.org/2000/svg" xmlns:xlink="http://www.w3.org/1999/xlink" contentStyleType="text/css" height="822px" preserveAspectRatio="none" style="width:1194px;height:822px;background:#FFFFFF;" version="1.1" viewBox="0 0 1194 822" width="1194px" zoomAndPan="magnify"><defs/><g><line style="stroke:#181818;stroke-width:0.5;stroke-dasharray:5.0,5.0;" x1="63" x2="63" y1="82.6094" y2="739.9922"/><line style="stroke:#181818;stroke-width:0.5;stroke-dasharray:5.0,5.0;" x1="189" x2="189" y1="82.6094" y2="739.9922"/><line style="stroke:#181818;stroke-width:0.5;stroke-dasharray:5.0,5.0;" x1="448.5" x2="448.5" y1="82.6094" y2="739.9922"/><line style="stroke:#181818;stroke-width:0.5;stroke-dasharray:5.0,5.0;" x1="612.5" x2="612.5" y1="82.6094" y2="739.9922"/><line style="stroke:#181818;stroke-width:0.5;stroke-dasharray:5.0,5.0;" x1="743" x2="743" y1="82.6094" y2="739.9922"/><line style="stroke:#181818;stroke-width:0.5;stroke-dasharray:5.0,5.0;" x1="980" x2="980" y1="82.6094" y2="739.9922"/><line style="stroke:#181818;stroke-width:0.5;stroke-dasharray:5.0,5.0;" x1="1056" x2="1056" y1="82.6094" y2="739.9922"/><line style="stroke:#181818;stroke-width:0.5;stroke-dasharray:5.0,5.0;" x1="1137" x2="1137" y1="82.6094" y2="739.9922"/><text fill="#000000" font-family="sans-serif" font-size="14" lengthAdjust="spacing" textLength="111" x="5" y="79.5332">FlutterFramework</text><ellipse cx="63.5" cy="13.5" fill="#E2E2F0" rx="8" ry="8" style="stroke:#181818;stroke-width:0.5;"/><path d="M63.5,21.5 L63.5,48.5 M50.5,29.5 L76.5,29.5 M63.5,48.5 L50.5,63.5 M63.5,48.5 L76.5,63.5 " fill="none" style="stroke:#181818;stroke-width:0.5;"/><text fill="#000000" font-family="sans-serif" font-size="14" lengthAdjust="spacing" textLength="111" x="5" y="753.5254">FlutterFramework</text><ellipse cx="63.5" cy="765.1016" fill="#E2E2F0" rx="8" ry="8" style="stroke:#181818;stroke-width:0.5;"/><path d="M63.5,773.1016 L63.5,800.1016 M50.5,781.1016 L76.5,781.1016 M63.5,800.1016 L50.5,815.1016 M63.5,800.1016 L76.5,815.1016 " fill="none" style="stroke:#181818;stroke-width:0.5;"/><rect fill="#E2E2F0" height="31.6094" rx="2.5" ry="2.5" style="stroke:#181818;stroke-width:0.5;" width="89" x="145" y="50"/><text fill="#000000" font-family="sans-serif" font-size="14" lengthAdjust="spacing" textLength="75" x="152" y="71.5332">UserInfoBox</text><rect fill="#E2E2F0" height="31.6094" rx="2.5" ry="2.5" style="stroke:#181818;stroke-width:0.5;" width="89" x="145" y="738.9922"/><text fill="#000000" font-family="sans-serif" font-size="14" lengthAdjust="spacing" textLength="75" x="152" y="760.5254">UserInfoBox</text><rect fill="#E2E2F0" height="31.6094" rx="2.5" ry="2.5" style="stroke:#181818;stroke-width:0.5;" width="76" x="410.5" y="50"/><text fill="#000000" font-family="sans-serif" font-size="14" lengthAdjust="spacing" textLength="62" x="417.5" y="71.5332">Container</text><rect fill="#E2E2F0" height="31.6094" rx="2.5" ry="2.5" style="stroke:#181818;stroke-width:0.5;" width="76" x="410.5" y="738.9922"/><text fill="#000000" font-family="sans-serif" font-size="14" lengthAdjust="spacing" textLength="62" x="417.5" y="760.5254">Container</text><rect fill="#E2E2F0" height="31.6094" rx="2.5" ry="2.5" style="stroke:#181818;stroke-width:0.5;" width="62" x="581.5" y="50"/><text fill="#000000" font-family="sans-serif" font-size="14" lengthAdjust="spacing" textLength="48" x="588.5" y="71.5332">Column</text><rect fill="#E2E2F0" height="31.6094" rx="2.5" ry="2.5" style="stroke:#181818;stroke-width:0.5;" width="62" x="581.5" y="738.9922"/><text fill="#000000" font-family="sans-serif" font-size="14" lengthAdjust="spacing" textLength="48" x="588.5" y="760.5254">Column</text><rect fill="#E2E2F0" height="31.6094" rx="2.5" ry="2.5" style="stroke:#181818;stroke-width:0.5;" width="41" x="723" y="50"/><text fill="#000000" font-family="sans-serif" font-size="14" lengthAdjust="spacing" textLength="27" x="730" y="71.5332">Row</text><rect fill="#E2E2F0" height="31.6094" rx="2.5" ry="2.5" style="stroke:#181818;stroke-width:0.5;" width="41" x="723" y="738.9922"/><text fill="#000000" font-family="sans-serif" font-size="14" lengthAdjust="spacing" textLength="27" x="730" y="760.5254">Row</text><rect fill="#E2E2F0" height="31.6094" rx="2.5" ry="2.5" style="stroke:#181818;stroke-width:0.5;" width="91" x="935" y="50"/><text fill="#000000" font-family="sans-serif" font-size="14" lengthAdjust="spacing" textLength="77" x="942" y="71.5332">CircleAvatar</text><rect fill="#E2E2F0" height="31.6094" rx="2.5" ry="2.5" style="stroke:#181818;stroke-width:0.5;" width="91" x="935" y="738.9922"/><text fill="#000000" font-family="sans-serif" font-size="14" lengthAdjust="spacing" textLength="77" x="942" y="760.5254">CircleAvatar</text><rect fill="#E2E2F0" height="31.6094" rx="2.5" ry="2.5" style="stroke:#181818;stroke-width:0.5;" width="41" x="1036" y="50"/><text fill="#000000" font-family="sans-serif" font-size="14" lengthAdjust="spacing" textLength="27" x="1043" y="71.5332">Text</text><rect fill="#E2E2F0" height="31.6094" rx="2.5" ry="2.5" style="stroke:#181818;stroke-width:0.5;" width="41" x="1036" y="738.9922"/><text fill="#000000" font-family="sans-serif" font-size="14" lengthAdjust="spacing" textLength="27" x="1043" y="760.5254">Text</text><rect fill="#E2E2F0" height="31.6094" rx="2.5" ry="2.5" style="stroke:#181818;stroke-width:0.5;" width="101" x="1087" y="50"/><text fill="#000000" font-family="sans-serif" font-size="14" lengthAdjust="spacing" textLength="87" x="1094" y="71.5332">LayoutBuilder</text><rect fill="#E2E2F0" height="31.6094" rx="2.5" ry="2.5" style="stroke:#181818;stroke-width:0.5;" width="101" x="1087" y="738.9922"/><text fill="#000000" font-family="sans-serif" font-size="14" lengthAdjust="spacing" textLength="87" x="1094" y="760.5254">LayoutBuilder</text><polygon fill="#181818" points="177.5,110.9609,187.5,114.9609,177.5,118.9609,181.5,114.9609" style="stroke:#181818;stroke-width:1.0;"/><line style="stroke:#181818;stroke-width:1.0;" x1="63.5" x2="183.5" y1="114.9609" y2="114.9609"/><text fill="#000000" font-family="sans-serif" font-size="13" lengthAdjust="spacing" textLength="102" x="70.5" y="110.1045">call build(context)</text><polygon fill="#181818" points="436.5,141.3125,446.5,145.3125,436.5,149.3125,440.5,145.3125" style="stroke:#181818;stroke-width:1.0;"/><line style="stroke:#181818;stroke-width:1.0;" x1="189.5" x2="442.5" y1="145.3125" y2="145.3125"/><text fill="#000000" font-family="sans-serif" font-size="13" lengthAdjust="spacing" textLength="235" x="196.5" y="140.4561">create() with margin, padding, decoration</text><polygon fill="#181818" points="600.5,171.6641,610.5,175.6641,600.5,179.6641,604.5,175.6641" style="stroke:#181818;stroke-width:1.0;"/><line style="stroke:#181818;stroke-width:1.0;" x1="448.5" x2="606.5" y1="175.6641" y2="175.6641"/><text fill="#000000" font-family="sans-serif" font-size="13" lengthAdjust="spacing" textLength="140" x="455.5" y="170.8076">create() (children layout)</text><polygon fill="#181818" points="731.5,202.0156,741.5,206.0156,731.5,210.0156,735.5,206.0156" style="stroke:#181818;stroke-width:1.0;"/><line style="stroke:#181818;stroke-width:1.0;" x1="612.5" x2="737.5" y1="206.0156" y2="206.0156"/><text fill="#000000" font-family="sans-serif" font-size="13" lengthAdjust="spacing" textLength="44" x="619.5" y="201.1592">create()</text><polygon fill="#181818" points="968.5,232.3672,978.5,236.3672,968.5,240.3672,972.5,236.3672" style="stroke:#181818;stroke-width:1.0;"/><line style="stroke:#181818;stroke-width:1.0;" x1="743.5" x2="974.5" y1="236.3672" y2="236.3672"/><text fill="#000000" font-family="sans-serif" font-size="13" lengthAdjust="spacing" textLength="213" x="750.5" y="231.5107">create(backgroundImage: avatarURL)</text><polygon fill="#181818" points="1044.5,262.7188,1054.5,266.7188,1044.5,270.7188,1048.5,266.7188" style="stroke:#181818;stroke-width:1.0;"/><line style="stroke:#181818;stroke-width:1.0;" x1="743.5" x2="1050.5" y1="266.7188" y2="266.7188"/><text fill="#000000" font-family="sans-serif" font-size="13" lengthAdjust="spacing" textLength="172" x="750.5" y="261.8623">create(name, style: heading2)</text><polygon fill="#181818" points="754.5,293.0703,744.5,297.0703,754.5,301.0703,750.5,297.0703" style="stroke:#181818;stroke-width:1.0;"/><line style="stroke:#181818;stroke-width:1.0;" x1="748.5" x2="979.5" y1="297.0703" y2="297.0703"/><text fill="#000000" font-family="sans-serif" font-size="13" lengthAdjust="spacing" textLength="78" x="760.5" y="292.2139">return Widget</text><polygon fill="#181818" points="754.5,323.4219,744.5,327.4219,754.5,331.4219,750.5,327.4219" style="stroke:#181818;stroke-width:1.0;"/><line style="stroke:#181818;stroke-width:1.0;" x1="748.5" x2="1055.5" y1="327.4219" y2="327.4219"/><text fill="#000000" font-family="sans-serif" font-size="13" lengthAdjust="spacing" textLength="78" x="760.5" y="322.5654">return Widget</text><polygon fill="#181818" points="623.5,353.7734,613.5,357.7734,623.5,361.7734,619.5,357.7734" style="stroke:#181818;stroke-width:1.0;"/><line style="stroke:#181818;stroke-width:1.0;" x1="617.5" x2="742.5" y1="357.7734" y2="357.7734"/><text fill="#000000" font-family="sans-serif" font-size="13" lengthAdjust="spacing" textLength="107" x="629.5" y="352.917">return Row Widget</text><polygon fill="#181818" points="731.5,384.125,741.5,388.125,731.5,392.125,735.5,388.125" style="stroke:#181818;stroke-width:1.0;"/><line style="stroke:#181818;stroke-width:1.0;" x1="612.5" x2="737.5" y1="388.125" y2="388.125"/><text fill="#000000" font-family="sans-serif" font-size="13" lengthAdjust="spacing" textLength="44" x="619.5" y="383.2686">create()</text><polygon fill="#181818" points="1044.5,414.4766,1054.5,418.4766,1044.5,422.4766,1048.5,418.4766" style="stroke:#181818;stroke-width:1.0;"/><line style="stroke:#181818;stroke-width:1.0;" x1="743.5" x2="1050.5" y1="418.4766" y2="418.4766"/><text fill="#000000" font-family="sans-serif" font-size="13" lengthAdjust="spacing" textLength="231" x="750.5" y="413.6201">create(proficiencyLevel, style: heading3)</text><polygon fill="#181818" points="754.5,444.8281,744.5,448.8281,754.5,452.8281,750.5,448.8281" style="stroke:#181818;stroke-width:1.0;"/><line style="stroke:#181818;stroke-width:1.0;" x1="748.5" x2="1055.5" y1="448.8281" y2="448.8281"/><text fill="#000000" font-family="sans-serif" font-size="13" lengthAdjust="spacing" textLength="78" x="760.5" y="443.9717">return Widget</text><polygon fill="#181818" points="623.5,475.1797,613.5,479.1797,623.5,483.1797,619.5,479.1797" style="stroke:#181818;stroke-width:1.0;"/><line style="stroke:#181818;stroke-width:1.0;" x1="617.5" x2="742.5" y1="479.1797" y2="479.1797"/><text fill="#000000" font-family="sans-serif" font-size="13" lengthAdjust="spacing" textLength="107" x="629.5" y="474.3232">return Row Widget</text><polygon fill="#181818" points="1125.5,505.5313,1135.5,509.5313,1125.5,513.5313,1129.5,509.5313" style="stroke:#181818;stroke-width:1.0;"/><line style="stroke:#181818;stroke-width:1.0;" x1="612.5" x2="1131.5" y1="509.5313" y2="509.5313"/><text fill="#000000" font-family="sans-serif" font-size="13" lengthAdjust="spacing" textLength="44" x="619.5" y="504.6748">create()</text><polygon fill="#181818" points="200.5,535.8828,190.5,539.8828,200.5,543.8828,196.5,539.8828" style="stroke:#181818;stroke-width:1.0;"/><line style="stroke:#181818;stroke-width:1.0;" x1="194.5" x2="1136.5" y1="539.8828" y2="539.8828"/><text fill="#000000" font-family="sans-serif" font-size="13" lengthAdjust="spacing" textLength="328" x="206.5" y="535.0264">buildStatBox(Icons.calendar_month, "15", "Active Days")</text><polygon fill="#181818" points="200.5,566.2344,190.5,570.2344,200.5,574.2344,196.5,570.2344" style="stroke:#181818;stroke-width:1.0;"/><line style="stroke:#181818;stroke-width:1.0;" x1="194.5" x2="1136.5" y1="570.2344" y2="570.2344"/><text fill="#000000" font-family="sans-serif" font-size="13" lengthAdjust="spacing" textLength="369" x="206.5" y="565.3779">buildStatBox(Icons.arrow_outward_rounded, "92%", "Precision")</text><polygon fill="#181818" points="1125.5,596.5859,1135.5,600.5859,1125.5,604.5859,1129.5,600.5859" style="stroke:#181818;stroke-width:1.0;"/><line style="stroke:#181818;stroke-width:1.0;" x1="189.5" x2="1131.5" y1="600.5859" y2="600.5859"/><text fill="#000000" font-family="sans-serif" font-size="13" lengthAdjust="spacing" textLength="111" x="196.5" y="595.7295">return stat Widgets</text><polygon fill="#181818" points="623.5,626.9375,613.5,630.9375,623.5,634.9375,619.5,630.9375" style="stroke:#181818;stroke-width:1.0;"/><line style="stroke:#181818;stroke-width:1.0;" x1="617.5" x2="1136.5" y1="630.9375" y2="630.9375"/><text fill="#000000" font-family="sans-serif" font-size="13" lengthAdjust="spacing" textLength="109" x="629.5" y="626.0811">return Row of stats</text><polygon fill="#181818" points="459.5,657.2891,449.5,661.2891,459.5,665.2891,455.5,661.2891" style="stroke:#181818;stroke-width:1.0;"/><line style="stroke:#181818;stroke-width:1.0;" x1="453.5" x2="611.5" y1="661.2891" y2="661.2891"/><text fill="#000000" font-family="sans-serif" font-size="13" lengthAdjust="spacing" textLength="119" x="465.5" y="656.4326">return content layout</text><polygon fill="#181818" points="200.5,687.6406,190.5,691.6406,200.5,695.6406,196.5,691.6406" style="stroke:#181818;stroke-width:1.0;"/><line style="stroke:#181818;stroke-width:1.0;" x1="194.5" x2="447.5" y1="691.6406" y2="691.6406"/><text fill="#000000" font-family="sans-serif" font-size="13" lengthAdjust="spacing" textLength="106" x="206.5" y="686.7842">return built Widget</text><polygon fill="#181818" points="74.5,717.9922,64.5,721.9922,74.5,725.9922,70.5,721.9922" style="stroke:#181818;stroke-width:1.0;"/><line style="stroke:#181818;stroke-width:1.0;" x1="68.5" x2="188.5" y1="721.9922" y2="721.9922"/><text fill="#000000" font-family="sans-serif" font-size="13" lengthAdjust="spacing" textLength="97" x="80.5" y="717.1357">render on screen</text><!--SRC=[hLJ1Yjj03BtxAqIWD86uq2qzD2o5tPP089HbswN7eFKeph3sJD2CuytVLpDsN8zpAMKl0KjFJ-zff63XBSEwQhmdNZFMr5f-oOx8NXVwYCR3aoFUcBszjwz9_9ir7hKXdaIhfZP9wD6sAKHpKT7T2JscjR_erIU1BPvju-yRNIbfaqrbGlvrh6u51LOLF0Vul11rGhV8He207rGBcWazpHVGQd-06hdKPWb7L4gRSWcA2ilejJNPKDGn18UZydbna8vC1ggeTv5bxo7FSrXhTj7-2ZgtW4R13r4Vqbb752WZvCANoLViCnhJa7t6ugLasnYrgR6a5M3CFprkXxemnG5lfDaId3zNWZqG1cit7VGsdxHWyWqR-ArLIVu2wTZIL2zSib5udmm5FQ3t_rCcA8OZw87jNfwLJ766BPse-fSH95QEVnaYmTJMfyMRQFReNL0U7dwYCLd7aTeaVhMKSHy3hNpDDp8Hzq7sb8n2tjMoM8Sbp3v-didldJGz4Np7ivlz1oiostOdDIsosiKb8IMqNsxU1VO7fa8xSNN5BKD9kFlXE67lf-D6yvjCOJH9kuyrBXiTJDYo_c1wPBnCEUxkM9BxZE3XFdjyS7hHSVqNSAtT14loTaxUXymV]--></g></svg>